<mxfile host="app.diagrams.net" modified="2023-05-17T12:01:20.420Z" agent="Mozilla/5.0 (Windows NT 10.0; Win64; x64) AppleWebKit/537.36 (KHTML, like Gecko) Chrome/113.0.0.0 Safari/537.36 Edg/113.0.1774.42" etag="Uda9O423WZbRAD_nL4IX" version="21.3.2" type="github">
  <diagram name="Page-1" id="W_-iYK6C9S5nAGUlUAzp">
    <mxGraphModel dx="352" dy="438" grid="1" gridSize="10" guides="1" tooltips="1" connect="1" arrows="1" fold="1" page="1" pageScale="1" pageWidth="850" pageHeight="1100" math="0" shadow="0">
      <root>
        <mxCell id="0" />
        <mxCell id="1" parent="0" />
        <mxCell id="0rMov-X-YGsleGkPq-ht-1" value="" style="rounded=0;whiteSpace=wrap;html=1;" vertex="1" parent="1">
          <mxGeometry x="140" y="340" width="120" height="300" as="geometry" />
        </mxCell>
        <mxCell id="0rMov-X-YGsleGkPq-ht-2" value="" style="rounded=0;whiteSpace=wrap;html=1;" vertex="1" parent="1">
          <mxGeometry x="460" y="340" width="120" height="300" as="geometry" />
        </mxCell>
        <mxCell id="0rMov-X-YGsleGkPq-ht-3" value="Initial mobile status" style="text;html=1;strokeColor=none;fillColor=none;align=center;verticalAlign=middle;whiteSpace=wrap;rounded=0;" vertex="1" parent="1">
          <mxGeometry x="170" y="350" width="60" height="30" as="geometry" />
        </mxCell>
        <mxCell id="0rMov-X-YGsleGkPq-ht-6" value="User 1" style="text;html=1;strokeColor=none;fillColor=none;align=center;verticalAlign=middle;whiteSpace=wrap;rounded=0;" vertex="1" parent="1">
          <mxGeometry x="170" y="290" width="60" height="30" as="geometry" />
        </mxCell>
        <mxCell id="0rMov-X-YGsleGkPq-ht-7" value="User 2" style="text;html=1;strokeColor=none;fillColor=none;align=center;verticalAlign=middle;whiteSpace=wrap;rounded=0;" vertex="1" parent="1">
          <mxGeometry x="490" y="290" width="60" height="30" as="geometry" />
        </mxCell>
        <mxCell id="0rMov-X-YGsleGkPq-ht-8" value="Initial mobile status" style="text;html=1;strokeColor=none;fillColor=none;align=center;verticalAlign=middle;whiteSpace=wrap;rounded=0;" vertex="1" parent="1">
          <mxGeometry x="490" y="420" width="60" height="30" as="geometry" />
        </mxCell>
        <mxCell id="0rMov-X-YGsleGkPq-ht-23" value="Set Mobile status as &quot;Transfered&quot;" style="text;html=1;strokeColor=none;fillColor=none;align=center;verticalAlign=middle;whiteSpace=wrap;rounded=0;" vertex="1" parent="1">
          <mxGeometry x="170" y="420" width="60" height="30" as="geometry" />
        </mxCell>
        <mxCell id="0rMov-X-YGsleGkPq-ht-24" value="" style="endArrow=classic;html=1;rounded=0;exitX=-0.013;exitY=0.195;exitDx=0;exitDy=0;exitPerimeter=0;entryX=1.011;entryY=0.193;entryDx=0;entryDy=0;entryPerimeter=0;dashed=1;dashPattern=12 12;" edge="1" parent="1" source="0rMov-X-YGsleGkPq-ht-1" target="0rMov-X-YGsleGkPq-ht-2">
          <mxGeometry width="50" height="50" relative="1" as="geometry">
            <mxPoint x="410" y="590" as="sourcePoint" />
            <mxPoint x="460" y="540" as="targetPoint" />
          </mxGeometry>
        </mxCell>
        <mxCell id="0rMov-X-YGsleGkPq-ht-26" value="Transfer" style="edgeLabel;html=1;align=center;verticalAlign=middle;resizable=0;points=[];" vertex="1" connectable="0" parent="0rMov-X-YGsleGkPq-ht-24">
          <mxGeometry x="-0.0711" relative="1" as="geometry">
            <mxPoint x="16" as="offset" />
          </mxGeometry>
        </mxCell>
        <mxCell id="0rMov-X-YGsleGkPq-ht-25" value="" style="endArrow=classic;html=1;rounded=0;exitX=-0.013;exitY=0.195;exitDx=0;exitDy=0;exitPerimeter=0;entryX=1.011;entryY=0.193;entryDx=0;entryDy=0;entryPerimeter=0;dashed=1;dashPattern=12 12;" edge="1" parent="1">
          <mxGeometry width="50" height="50" relative="1" as="geometry">
            <mxPoint x="580" y="489.5" as="sourcePoint" />
            <mxPoint x="137" y="490.5" as="targetPoint" />
          </mxGeometry>
        </mxCell>
        <mxCell id="0rMov-X-YGsleGkPq-ht-28" value="Transfer" style="edgeLabel;html=1;align=center;verticalAlign=middle;resizable=0;points=[];" vertex="1" connectable="0" parent="0rMov-X-YGsleGkPq-ht-25">
          <mxGeometry x="0.0442" y="-2" relative="1" as="geometry">
            <mxPoint x="11" y="2" as="offset" />
          </mxGeometry>
        </mxCell>
        <mxCell id="0rMov-X-YGsleGkPq-ht-29" value="Set Mobile status remains as &quot;Transfered&quot;" style="text;html=1;strokeColor=none;fillColor=none;align=center;verticalAlign=middle;whiteSpace=wrap;rounded=0;" vertex="1" parent="1">
          <mxGeometry x="170" y="530" width="60" height="30" as="geometry" />
        </mxCell>
      </root>
    </mxGraphModel>
  </diagram>
</mxfile>
